HIERARCHY
ROOT Hips
{
	OFFSET 0.00000 0.00000 0.00000
	CHANNELS 6 Xposition Yposition Zposition Zrotation Yrotation Xrotation 
	JOINT LHipJoint
	{
		OFFSET 0 0 0
		CHANNELS 3 Zrotation Yrotation Xrotation
		JOINT LeftUpLeg
		{
			OFFSET 1.64549 -1.70879 0.84566
			CHANNELS 3 Zrotation Yrotation Xrotation
			JOINT LeftLeg
			{
				OFFSET 2.24963 -6.18082 0.00000
				CHANNELS 3 Zrotation Yrotation Xrotation
				JOINT LeftFoot
				{
					OFFSET 2.71775 -7.46697 0.00000
					CHANNELS 3 Zrotation Yrotation Xrotation
					JOINT LeftToeBase
					{
						OFFSET 0.18768 -0.51564 2.24737
						CHANNELS 3 Zrotation Yrotation Xrotation
						End Site
						{
							OFFSET 0.00000 -0.00000 1.15935
						}
					}
				}
			}
		}
	}
	JOINT RHipJoint
	{
		OFFSET 0 0 0
		CHANNELS 3 Zrotation Yrotation Xrotation
		JOINT RightUpLeg
		{
			OFFSET -1.58830 -1.70879 0.84566
			CHANNELS 3 Zrotation Yrotation Xrotation
			JOINT RightLeg
			{
				OFFSET -2.25006 -6.18201 0.00000
				CHANNELS 3 Zrotation Yrotation Xrotation
				JOINT RightFoot
				{
					OFFSET -2.72829 -7.49593 0.00000
					CHANNELS 3 Zrotation Yrotation Xrotation
					JOINT RightToeBase
					{
						OFFSET -0.21541 -0.59185 2.10643
						CHANNELS 3 Zrotation Yrotation Xrotation
						End Site
						{
							OFFSET -0.00000 -0.00000 1.09838
						}
					}
				}
			}
		}
	}
	JOINT LowerBack
	{
		OFFSET 0 0 0
		CHANNELS 3 Zrotation Yrotation Xrotation
		JOINT Spine
		{
			OFFSET 0.03142 2.10496 -0.11038
			CHANNELS 3 Zrotation Yrotation Xrotation
			JOINT Spine1
			{
				OFFSET -0.01863 2.10897 -0.06956
				CHANNELS 3 Zrotation Yrotation Xrotation
				JOINT Neck
				{
					OFFSET 0 0 0
					CHANNELS 3 Zrotation Yrotation Xrotation
					JOINT Neck1
					{
						OFFSET -0.02267 1.73238 0.00451
						CHANNELS 3 Zrotation Yrotation Xrotation
						JOINT Head
						{
							OFFSET -0.05808 1.54724 -0.61749
							CHANNELS 3 Zrotation Yrotation Xrotation
							End Site
							{
								OFFSET -0.01396 1.71468 -0.21082
							}
						}
					}
				}
				JOINT LeftShoulder
				{
					OFFSET 0 0 0
					CHANNELS 3 Zrotation Yrotation Xrotation
					JOINT LeftArm
					{
						OFFSET 3.44898 0.50298 0.21920
						CHANNELS 3 Zrotation Yrotation Xrotation
						JOINT LeftForeArm
						{
							OFFSET 5.41917 -0.00000 -0.00000
							CHANNELS 3 Zrotation Yrotation Xrotation
							JOINT LeftHand
							{
								OFFSET 2.44373 -0.00000 0.00000
								CHANNELS 3 Zrotation Yrotation Xrotation
								JOINT LeftFingerBase
								{
									OFFSET 0 0 0
									CHANNELS 3 Zrotation Yrotation Xrotation
									JOINT LeftHandIndex1
									{
										OFFSET 0.72750 -0.00000 0.00000
										CHANNELS 3 Zrotation Yrotation Xrotation
										End Site
										{
											OFFSET 0.58653 -0.00000 0.00000
										}
									}
								}
								JOINT LThumb
								{
									OFFSET 0 0 0
									CHANNELS 3 Zrotation Yrotation Xrotation
									End Site
									{
										OFFSET 0.59549 -0.00000 0.59549
									}
								}
							}
						}
					}
				}
				JOINT RightShoulder
				{
					OFFSET 0 0 0
					CHANNELS 3 Zrotation Yrotation Xrotation
					JOINT RightArm
					{
						OFFSET -3.23015 0.55830 0.31051
						CHANNELS 3 Zrotation Yrotation Xrotation
						JOINT RightForeArm
						{
							OFFSET -5.58976 -0.00010 0.00014
							CHANNELS 3 Zrotation Yrotation Xrotation
							JOINT RightHand
							{
								OFFSET -2.48060 -0.00000 0.00000
								CHANNELS 3 Zrotation Yrotation Xrotation
								JOINT RightFingerBase
								{
									OFFSET 0 0 0
									CHANNELS 3 Zrotation Yrotation Xrotation
									JOINT RightHandIndex1
									{
										OFFSET -0.81601 -0.00000 0.00000
										CHANNELS 3 Zrotation Yrotation Xrotation
										End Site
										{
											OFFSET -0.65789 -0.00000 0.00000
										}
									}
								}
								JOINT RThumb
								{
									OFFSET 0 0 0
									CHANNELS 3 Zrotation Yrotation Xrotation
									End Site
									{
										OFFSET -0.66793 -0.00000 0.66793
									}
								}
							}
						}
					}
				}
			}
		}
	}
}
MOTION
Frames: 6
Frame Time: .0083333
-1.447 16.3473 28.7212 0 0 0 0 0 0 -21 0 0 0 0 0 0 0 0 0 0 0 0 0 0 21 0 0 0 0 0 0 0 0 0 0 0 0 0 0 0 0 0 0 0 0 0 0 -16 0 0 21 0 0 11 0 0 0 -8 0 0 0 0 0 0 0 0 0 0 0 0 0 0 0 0 0 0 0 0 8 0 0 0 0 0 0 0 0 0 0 0 0 0 0 0 0 0
-1.4470 16.3473 28.7212 -177.6590 5.6732 -153.4840 0.0000 0.0000 0.0000 -20.0129 -15.5093 -29.1909 4.7825 13.1346 39.8743 4.9811 5.3882 -44.2486 0.9218 -6.1170 -17.1242 0.0000 0.0000 0.0000 14.1391 21.3359 -64.0956 -7.5221 -15.7562 50.8223 -0.4313 -7.6941 -17.5406 -0.0066 0.5245 -1.4412 0.2793 -0.8766 1.4551 0.2238 -0.8980 -5.6443 0.1289 -0.3429 -6.6807 0.7167 1.8392 -22.1371 -0.7423 2.5952 19.1310 0.0088 1.2077 9.7330 0.0000 -0.0000 0.0000 -72.1634 4.9561 81.0015 53.4172 -54.2841 -28.9265 -0.0000 -0.0000 23.4910 20.6047 2.6982 1.0140 -7.1250 0.0000 -0.0000 -4.8610 32.8353 1.4531 0.0000 -0.0000 0.0000 80.8863 -12.7648 60.7533 -70.6245 58.5329 -43.3030 0.0000 -0.0000 -7.6947 -5.0150 18.5601 -1.6000 7.1250 -0.0000 -0.0000 15.0255 -11.8203 12.0616
-1.4374 16.3575 28.5732 -177.7870 5.7744 -153.3670 0.0000 0.0000 0.0000 -20.4198 -15.2480 -28.1515 4.5307 12.8350 38.7538 4.9495 5.7993 -44.2720 0.9360 -6.1625 -17.2566 0.0000 0.0000 0.0000 12.9983 22.2214 -64.7646 -6.9505 -15.2900 48.6867 -0.2740 -8.1353 -16.0038 -0.0146 0.7804 -2.1449 -0.0585 -1.0654 1.4559 0.3367 -1.1278 -6.0008 0.4539 -0.4185 -7.0530 0.6959 2.0117 -22.1853 -0.8424 2.8837 19.4477 0.0228 1.3305 9.8577 0.0000 0.0000 0.0000 -72.9747 3.8346 81.4262 48.8173 -52.5072 -25.2327 -0.0000 -0.0000 24.1976 20.0047 3.5443 1.2893 -7.1250 0.0000 -0.0000 -5.4151 33.7145 1.5044 0.0000 0.0000 0.0000 81.2572 -12.4083 59.8212 -65.7184 57.6506 -39.1374 0.0000 -0.0000 -7.2709 -6.0289 18.8604 -1.9554 7.1250 -0.0000 -0.0000 14.3679 -11.4629 11.6062
-1.4336 16.3621 28.4263 -177.9280 5.6633 -153.3440 0.0000 0.0000 0.0000 -20.7920 -15.1217 -26.9876 4.2956 12.5436 37.6834 4.9592 5.8520 -44.3331 0.8777 -5.9725 -16.7048 0.0000 0.0000 0.0000 11.8633 22.8668 -65.4772 -6.4646 -14.8639 46.8190 -0.1027 -8.8356 -14.3367 -0.0150 0.7919 -2.1763 -0.0984 -1.2441 1.0427 0.3028 -1.3707 -5.9284 0.4499 -0.5383 -6.7339 0.7557 2.1609 -22.6784 -0.8266 3.0595 19.6106 0.0507 1.4116 10.0063 0.0000 0.0000 0.0000 -73.5311 1.7958 81.9003 44.1011 -50.3204 -21.5447 -0.0000 -0.0000 24.7761 19.1164 3.8533 1.3343 -7.1250 0.0000 -0.0000 -6.1680 34.0085 1.6713 0.0000 0.0000 0.0000 81.8001 -11.5299 58.5085 -61.2860 56.6430 -35.4132 0.0000 -0.0000 -6.5708 -6.0074 18.4704 -1.9095 7.1250 -0.0000 -0.0000 14.3929 -11.8434 11.5108
-1.4310 16.3662 28.2862 -178.0310 5.2023 -153.4010 0.0000 0.0000 0.0000 -20.9816 -15.1889 -25.6952 4.0536 12.2314 36.5556 4.9565 5.7413 -44.2792 0.8071 -5.7335 -16.0131 0.0000 0.0000 0.0000 10.7845 23.3306 -66.1304 -6.0188 -14.4465 45.0570 0.0863 -9.9480 -12.6416 -0.0005 0.1501 -0.4123 0.0400 -1.4760 1.0685 0.2903 -1.6679 -6.0140 0.3813 -0.6890 -6.8431 0.9321 2.2465 -23.1739 -0.8375 3.1260 19.9878 0.0364 1.4502 10.2349 -0.0000 0.0000 0.0000 -74.1263 -0.0677 82.6928 39.7118 -47.8982 -18.2251 -0.0000 -0.0000 25.6159 17.8184 4.2055 1.3503 -7.1250 0.0000 -0.0000 -7.2652 34.3263 1.9159 -0.0000 0.0000 0.0000 82.2730 -10.8544 57.0896 -57.1479 55.5008 -31.9790 0.0000 -0.0000 -6.1528 -5.9563 17.6779 -1.8146 7.1250 -0.0000 -0.0000 14.4515 -12.6166 11.3204
-1.4177 16.3602 28.1639 -178.4430 4.9840 -153.0470 0.0000 0.0000 0.0000 -21.3803 -15.3172 -25.0559 3.8246 11.9232 35.4609 4.8655 5.9107 -43.9609 0.8211 -5.7818 -16.1527 0.0000 0.0000 0.0000 8.7354 24.2496 -67.5467 -5.6415 -14.0717 43.5256 0.3150 -11.7908 -11.1859 -0.0061 -0.5060 1.3903 -0.4159 -1.7103 1.0382 0.2712 -1.9583 -6.4620 0.6402 -0.7825 -7.2892 1.0818 2.3402 -23.3638 -0.8466 3.2286 20.4450 0.0310 1.5098 10.4388 0.0000 0.0000 0.0000 -74.9365 -1.6086 83.0922 35.7112 -45.3134 -15.3168 -0.0000 -0.0000 26.4952 16.0785 4.2331 1.2188 -7.1250 0.0000 -0.0000 -8.6892 34.2840 2.3072 0.0000 0.0000 0.0000 82.5554 -10.2595 55.8126 -52.5662 53.9795 -28.2368 0.0000 -0.0000 -6.0016 -6.7104 17.4459 -2.0202 7.1250 -0.0000 -0.0000 13.9704 -12.7940 10.8652
